<svg width="189" height="22" viewBox="0 0 189 22" fill="none" xmlns="http://www.w3.org/2000/svg">
<path d="M0.436035 10.7656V20.8438H3.10618H5.77633V17.2719V13.7L6.54458 12.8375C6.96618 12.3687 7.33157 11.975 7.35968 11.9656C7.38778 11.9562 8.54016 13.9344 9.90803 16.3719L12.4002 20.7969L15.3607 20.825C17.0003 20.8344 18.3307 20.825 18.3307 20.8062C18.3307 20.7781 16.6818 17.8625 14.6768 14.3094L11.0229 7.86875L11.3789 7.48437C12.0722 6.7625 17.3563 0.921873 17.4313 0.799997C17.4875 0.715622 17.2252 0.687498 16.2321 0.687498H14.9672L10.4608 5.65625C7.98739 8.38437 5.91686 10.6437 5.87002 10.6719C5.80443 10.7094 5.77633 8.9375 5.77633 5.7125V0.687498H3.10618H0.436035V10.7656Z" fill="white"/>
<path d="M27.7651 1.08125C27.5684 1.65312 20.7946 20.4781 20.7197 20.6844C20.6541 20.8344 20.7384 20.8438 21.6847 20.8438H22.7059L23.3898 18.9031C23.7646 17.825 24.1956 16.6062 24.3455 16.1844L24.6265 15.4062H28.5802H32.5339L33.5176 18.0969L34.5108 20.7969L37.3402 20.825L40.179 20.8438L40.1227 20.6375C40.0946 20.5156 38.427 15.9875 36.422 10.5781L32.7775 0.734373L30.3416 0.706247L27.9057 0.687498L27.7651 1.08125ZM30.2385 9.05L31.8687 13.5781L28.599 13.6062C26.8001 13.6156 25.3198 13.6156 25.3011 13.5969C25.2543 13.5594 28.4865 4.53125 28.5427 4.53125C28.5802 4.53125 29.3391 6.56562 30.2385 9.05Z" fill="white"/>
<path d="M43.5332 7.36248C43.5332 11.075 43.58 14.3562 43.6269 14.7406C44.0953 18.3406 45.9035 20.2531 49.4731 20.9094C50.1102 21.0312 50.8316 21.0687 52.3868 21.0687C54.1669 21.0687 54.5792 21.0406 55.4317 20.8531C58.7858 20.1312 60.2942 18.3312 60.669 14.6094C60.7346 13.9812 60.772 11.1312 60.772 7.13748V0.687477H59.6946H58.6266L58.5984 7.8781C58.561 14.9187 58.561 15.0969 58.3642 15.8C57.8958 17.4687 57.1556 18.2281 55.5723 18.6406C54.879 18.8187 53.0614 18.8469 52.2838 18.6875C51.1314 18.4437 50.2507 17.8062 49.7729 16.8406C49.2108 15.7062 49.2201 15.8375 49.1827 7.92498L49.1452 0.687477H46.3345H43.5332V7.36248Z" fill="white"/>
<path d="M65.9248 10.7656V20.8438H66.9554H67.986L68.0047 14.2437L68.0328 7.64375L73.8884 14.2437L79.744 20.8344L81.2711 20.8438H82.7889V10.7656V0.687498H81.7583H80.7277L80.709 6.89375L80.6809 13.0906L74.9846 6.89375L69.2883 0.687498H67.6018H65.9248V10.7656Z" fill="white"/>
<path d="M88.0356 10.7656V20.8438H94.9687H101.902V19.9531V19.0625H97.7325H93.5633V9.875V0.687498H90.7995H88.0356V10.7656Z" fill="white"/>
<path d="M111.336 1.08125C111.139 1.65312 104.365 20.4781 104.29 20.6844C104.225 20.8344 104.309 20.8438 105.255 20.8438H106.277L106.961 18.9031C107.335 17.825 107.766 16.6062 107.916 16.1844L108.197 15.4062H112.151H116.105L117.088 18.0969L118.082 20.7969L120.911 20.825L123.75 20.8438L123.694 20.6375C123.665 20.5156 121.998 15.9875 119.993 10.5781L116.348 0.734373L113.912 0.706247L111.476 0.687498L111.336 1.08125ZM113.809 9.05L115.44 13.5781L112.17 13.6062C110.371 13.6156 108.891 13.6156 108.872 13.5969C108.825 13.5594 112.057 4.53125 112.114 4.53125C112.151 4.53125 112.91 6.56562 113.809 9.05Z" fill="white"/>
<path d="M127.572 10.7656V20.8438H130.196H132.819V17V13.1469L133.962 13.175L135.105 13.2031L137.119 17.0187L139.124 20.8438H142.066H145.008L144.642 20.1687C143.977 18.95 140.698 12.725 140.642 12.575C140.595 12.4625 140.717 12.3594 141.12 12.1812C142.385 11.6 143.453 10.5969 144.024 9.44375C144.914 7.6625 144.746 5.075 143.64 3.4625C142.647 2 140.745 1.08125 138.131 0.790623C137.606 0.724997 135.217 0.687498 132.397 0.687498H127.572V10.7656ZM136.866 2.57187C138.525 2.92812 139.18 4.15625 139.19 6.875C139.19 8.88125 138.749 10.175 137.869 10.7562C137.232 11.1781 136.613 11.2812 134.627 11.2812H132.819V6.875V2.46875H134.599C135.573 2.46875 136.595 2.51562 136.866 2.57187Z" fill="white"/>
<path d="M154.902 1.08125C154.705 1.65312 147.931 20.4781 147.856 20.6844C147.791 20.8344 147.875 20.8438 148.821 20.8438H149.843L150.527 18.9031C150.901 17.825 151.332 16.6062 151.482 16.1844L151.763 15.4062H155.717H159.671L160.654 18.0969L161.647 20.7969L164.477 20.825L167.316 20.8438L167.259 20.6375C167.231 20.5156 165.564 15.9875 163.559 10.5781L159.914 0.734373L157.478 0.706247L155.042 0.687498L154.902 1.08125ZM157.375 9.05L159.005 13.5781L155.736 13.6062C153.937 13.6156 152.457 13.6156 152.438 13.5969C152.391 13.5594 155.623 4.53125 155.679 4.53125C155.717 4.53125 156.476 6.56562 157.375 9.05Z" fill="white"/>
<path d="M171.231 10.7656V20.8438H172.262H173.293L173.311 14.2437L173.339 7.64375L179.195 14.2437L185.051 20.8344L186.578 20.8438H188.096V10.7656V0.687498H187.065H186.034L186.016 6.89375L185.988 13.0906L180.291 6.89375L174.595 0.687498H172.908H171.231V10.7656Z" fill="white"/>
</svg>
