<svg width="179" height="183" viewBox="0 0 179 183" fill="none" xmlns="http://www.w3.org/2000/svg">
<path d="M89.4698 19.3457C106.488 19.3457 122.422 25.6668 120.144 28.6816C119.835 29.2059 119.258 29.2924 118.444 29.101L113.616 39.5455C113.616 39.5455 102.307 34.239 89.4574 34.239C76.6089 34.239 65.2419 39.5455 65.2419 39.5455L60.4165 29.101C59.6025 29.2924 59.0275 29.2059 58.7144 28.6816C56.4351 25.6668 72.3695 19.3457 89.3935 19.3457H89.4698Z" fill="#E8412C"/>
<path d="M89.6947 0.478516H95.8438L95.6546 6.23431H92.6143L92.6787 11.7943C92.6787 11.7943 96.806 11.3168 102.079 12.5634L103.24 6.76302L100.636 6.26077L101.59 0.583903L113.925 2.97168L112.642 8.58461L109.595 7.99594L108.408 14.0013C108.408 14.0013 116.085 15.9199 117.523 16.8786L120.001 11.0451L117.796 10.1006L119.933 4.75579L131.478 9.7117L129.032 14.9247L126.159 13.6896L120.453 25.9014C117.377 23.0347 109.945 20.7823 104.174 19.631C104.174 19.631 97.6368 18.2389 89.7066 18.2389C81.7787 18.2389 74.689 19.631 74.689 19.631C68.9195 20.7823 61.4876 23.0347 58.4115 25.9014L52.706 13.69L49.8336 14.9251L47.3867 9.71214L58.9287 4.75623L61.0691 10.1011L58.8648 11.0456L61.3443 16.879C62.7827 15.9199 70.4545 14.0018 70.4545 14.0018L69.2696 7.99638L66.22 8.58506L64.9394 2.97212L77.2761 0.584341L78.2259 6.26122L75.6251 6.76346L76.7857 12.5638C82.0587 11.3172 86.186 11.7948 86.186 11.7948L86.2504 6.23476H83.2127L83.0208 0.478953H89.17L89.6947 0.478516Z" fill="#FCD71A"/>
<path d="M89.3617 42.7549C73.2007 42.7549 64.274 36.6172 64.274 36.6172C64.274 36.6172 55.0465 42.5366 49.6775 45.3905C49.6775 45.3905 59.8719 57.8025 59.0751 78.3771C58.4194 95.3852 50.0558 106.663 49.7731 107.133C48.833 108.213 51.6521 112.959 56.727 115.966C65.2798 120.384 74.584 120.665 82.9472 125.271C85.3909 126.492 89.4292 130.72 89.4292 130.72C89.4292 130.72 93.4693 126.492 95.9126 125.271C104.276 120.665 113.58 120.384 122.133 115.966C127.205 112.959 130.027 108.213 129.087 107.133C128.804 106.663 120.441 95.3852 119.785 78.3771C118.988 57.8029 129.18 45.3905 129.18 45.3905C123.814 42.537 114.586 36.6172 114.586 36.6172C114.586 36.6172 105.524 42.7549 89.3617 42.7549Z" fill="#FCD71A"/>
<path d="M121.848 106.174C116.668 98.4541 115.224 88.6053 114.837 84.4727H64.0274C63.642 88.6057 62.1961 98.4541 57.0162 106.174C56.2511 107.238 57.5193 109.807 62.9074 112.69C68.2928 115.572 80.1078 116.898 86.2309 121.147L89.4265 123.449L92.8567 121.147C98.6676 117.04 110.569 115.572 115.958 112.69C121.346 109.807 122.599 107.428 121.848 106.174Z" fill="#E8412C"/>
<path d="M114.761 82.7442C114.761 82.7478 114.307 76.8522 114.307 76.8522C113.552 58.6817 121.322 47.1547 121.322 47.1547L113.806 42.3945C104.408 45.9866 95.8586 47.1846 88.6366 47.1846C74.1961 47.1846 65.0595 42.3945 65.0595 42.3945L57.543 47.1547C57.543 47.1547 65.3135 58.6821 64.5586 76.8522L64.1092 82.7442H114.761Z" fill="#E8412C"/>
<path d="M50.4041 45.5482C52.2019 47.9991 60.2652 60.0645 59.5575 78.3964C58.9926 93.0044 52.8907 103.422 50.2943 107.22C50.2361 107.302 50.2 107.355 50.1858 107.38L50.136 107.449C50.0888 107.505 50.05 107.67 50.0981 107.961C50.3587 109.591 52.8964 113.14 56.9722 115.555C61.0651 117.667 65.4429 118.849 69.6774 119.99C74.1818 121.204 78.8352 122.46 83.1804 124.852C85.2577 125.891 88.3885 128.974 89.4301 130.033C90.4734 128.974 93.6068 125.889 95.6991 124.842C100.028 122.46 104.682 121.204 109.182 119.991C113.419 118.849 117.799 117.668 121.913 115.543C125.966 113.138 128.501 109.592 128.764 107.962C128.812 107.673 128.774 107.506 128.726 107.45L128.676 107.38C128.662 107.356 128.626 107.303 128.568 107.221C125.971 103.422 119.869 93.0052 119.304 78.3973C118.594 60.0654 126.66 47.9999 128.46 45.5491C123.601 42.9148 116.066 38.1327 114.584 37.1895C112.945 38.1891 103.959 43.2358 89.3626 43.2358C74.7784 43.2358 65.9033 38.1997 64.2775 37.1895C62.791 38.1366 55.256 42.9144 50.4041 45.5482ZM89.4301 131.415L89.0826 131.053C89.042 131.011 85.0734 126.871 82.7328 125.699C78.4749 123.355 73.8758 122.116 69.4287 120.916C65.144 119.76 60.7159 118.566 56.5078 116.392C52.3858 113.951 49.4878 110.199 49.1474 108.113C49.0641 107.575 49.143 107.152 49.3864 106.848C49.4106 106.811 49.4494 106.754 49.5019 106.682C52.0511 102.949 58.0446 92.7173 58.5997 78.3589C59.3802 58.201 49.4106 45.819 49.3106 45.6955L48.9375 45.2422L49.4547 44.9675C54.7444 42.1564 63.926 36.2767 64.0173 36.218L64.2872 36.043L64.5487 36.2251C64.6364 36.2864 73.5578 42.2759 89.3626 42.2759C105.195 42.2759 114.228 36.2837 114.319 36.2224L114.578 36.0456L114.845 36.218C114.939 36.2762 124.119 42.1564 129.406 44.9675L129.923 45.2422L129.552 45.6955C129.453 45.8185 119.484 58.2239 120.265 78.3589C120.817 92.7173 126.811 102.949 129.36 106.682C129.41 106.754 129.451 106.811 129.475 106.848C129.719 107.152 129.798 107.575 129.712 108.113C129.376 110.195 126.478 113.951 122.377 116.38C118.146 118.566 113.717 119.76 109.433 120.916C104.986 122.115 100.387 123.355 96.1458 125.689C93.7854 126.871 89.8177 131.01 89.7767 131.052L89.4301 131.415Z" fill="#30302C"/>
<path d="M109.554 27.8312C109.351 28.3784 108.745 28.6571 108.194 28.4534C107.651 28.2532 107.371 27.6456 107.57 27.0988C107.774 26.5515 108.381 26.2729 108.93 26.4739C109.475 26.6737 109.755 27.284 109.554 27.8312ZM109.454 24.6986C108.774 24.4464 105.143 26.0175 104.312 26.0559L104.31 26.0691C104.963 26.5815 107.009 29.9663 107.709 30.1555C108.4 30.3433 111.661 28.9658 112.84 28.7942L112.843 28.785C111.981 27.9617 110.126 24.9491 109.454 24.6986ZM97.0662 25.0272C97.0146 25.6088 96.4991 26.0352 95.918 25.9809C95.3363 25.9267 94.9108 25.4126 94.9651 24.8331C95.018 24.2533 95.5326 23.8242 96.1138 23.878C96.6932 23.9318 97.1218 24.4464 97.0662 25.0272ZM91.5468 24.6691V24.6801C92.3096 25.0055 95.1635 27.7487 95.884 27.7514C96.6045 27.7536 99.3953 25.5792 100.492 25.1114V25.0995C99.4483 24.5276 96.877 22.0939 96.1618 22.0282C95.4386 21.9603 92.3392 24.4164 91.5468 24.6691ZM70.6671 28.4485C70.1207 28.6496 69.5131 28.3705 69.3098 27.8241C69.1092 27.2769 69.3892 26.6688 69.9368 26.4656C70.4832 26.2645 71.0882 26.5445 71.2914 27.0913C71.4929 27.6372 71.2134 28.2453 70.6671 28.4485ZM69.413 24.692C68.7357 24.9421 66.8832 27.9569 66.0185 28.7801L66.0211 28.7898C67.202 28.9587 70.4616 30.3385 71.1578 30.1506C71.8572 29.9615 73.901 26.5745 74.5523 26.0608L74.5497 26.0515C73.7211 26.0131 70.0876 24.442 69.413 24.692ZM83.3582 25.9761C82.777 26.0299 82.2616 25.6039 82.21 25.0223C82.1544 24.442 82.5857 23.9274 83.1624 23.8736C83.7436 23.8194 84.2582 24.2458 84.3138 24.8261C84.3654 25.4077 83.9394 25.9223 83.3582 25.9761ZM83.1166 22.0229C82.4004 22.0891 79.8301 24.5196 78.7842 25.0937V25.1034C79.8777 25.5739 82.6712 27.7483 83.3944 27.7461C84.1149 27.7439 86.9657 25.0003 87.729 24.6739V24.6616C86.9366 24.4094 83.8371 21.9537 83.1166 22.0229ZM86.8894 74.4557C86.4392 74.7966 85.8814 75.4267 85.8814 76.0127V78.4172H87.8295V77.4286C87.8251 77.0445 87.8392 76.7526 88.1047 76.4268L86.8894 74.4557ZM88.5386 76.8598C88.3776 76.9974 88.3102 77.2033 88.3102 77.4343V81.1886H90.5983V77.4343C90.5983 77.2271 90.5295 77.0441 90.395 76.8598C89.775 76.1957 89.1577 76.1957 88.5386 76.8598ZM85.8809 81.1622H87.7792V79.0535H85.8809V81.1622ZM88.8375 73.5169C88.2841 73.6293 87.7797 73.8137 87.3943 74.0663L88.6748 75.9893C89.2035 75.6688 89.7067 75.6688 90.2574 75.9893L91.5159 74.043C90.6468 73.5169 89.7538 73.3326 88.8375 73.5169ZM93.5937 78.4635H99.2617V75.966H93.5937V78.4635ZM88.6528 72.9679C89.6136 72.7152 90.5299 72.8281 91.4004 73.2863C92.296 73.7444 93.1152 74.4557 93.5937 75.372H98.9601L95.7786 72.6936H82.9971L79.9501 75.372H85.3377C85.604 74.9504 85.951 74.6149 86.1803 74.3428C86.8651 73.6298 87.7153 73.1738 88.6528 72.9679ZM92.0204 74.4557L90.8051 76.4263C91.0705 76.7522 91.0846 77.0441 91.0802 77.4282V78.4168H93.0284V76.0123C93.0284 75.4262 92.4701 74.7966 92.0204 74.4557ZM91.0802 81.1622H93.0257V79.0535H91.0802V81.1622ZM93.5937 81.1622H99.2617V79.0535H93.5937V81.1622ZM79.6022 78.4635H85.3399V75.966H79.6022V78.4635ZM85.122 60.0011V60.637H93.8591V60.0011C90.8024 59.5686 88.5024 59.5165 85.122 60.0011ZM86.6305 55.1224L87.3176 56.6905L86.6305 58.2916L85.9453 56.6905L86.6305 55.1224ZM89.4743 54.9571L90.3434 56.9705L89.4743 59.0121L88.6413 56.9705L89.4743 54.9571ZM92.538 55.1317L93.1911 56.7032L92.538 58.2757L91.8484 56.7032L92.538 55.1317ZM85.3236 58.3295L85.343 59.4795C86.5106 59.2687 89.4456 59.1682 89.536 59.1682C89.629 59.1682 92.4256 59.2295 93.7731 59.4795L93.7533 58.3524L94.9915 56.795C95.9299 55.4209 95.8143 54.435 94.7133 53.796C93.9121 53.3149 92.6549 53.4058 90.8695 54.095C90.4312 54.229 89.9236 54.435 89.4456 54.6193C88.9853 54.4134 88.6029 54.2074 88.1867 54.0487C86.4251 53.4058 85.1661 53.3149 84.364 53.7709C83.1047 54.4817 83.0359 55.4668 84.1127 56.7738L85.3236 58.3295ZM89.4743 54.1069L91.0992 53.5804C91.0992 53.5804 91.1354 53.4331 91.1354 53.2395C91.1354 52.4352 90.5581 51.7663 89.7944 51.6212V50.6996H90.3213V50.0113H89.7944V49.4151H89.084V50.0113H88.5602V50.6996H89.084V51.6464C88.3737 51.8267 87.8463 52.4696 87.8463 53.2395C87.8463 53.408 87.8921 53.572 87.8921 53.572L89.4743 54.1069ZM79.6022 81.1622H85.3399V79.0535H79.6022V81.1622ZM83.5447 72.105H95.41L93.9676 69.4169H85.0096L83.5447 72.105ZM92.7576 66.4382H89.73H85.5599V67.1274L85.148 68.8207H89.73H92.7576H93.7396L93.3922 67.1274V66.4382H92.7576ZM95.8007 61.0559H92.7748V63.0953H91.0114V61.0559H87.8295V63.0953H86.0176V61.0559H83.0429V65.8434H95.8011L95.8007 61.0559ZM85.802 99.2511C86.1177 99.2141 87.9988 98.8392 88.4014 99.0249C88.8014 99.2088 88.8878 100.341 88.8852 100.361C89.0007 100.297 90.3456 99.319 90.7976 99.4592C91.1689 99.5717 92.7969 101.408 92.8754 101.496C92.8833 101.48 93.4186 100.486 93.7736 100.606C94.1206 100.704 96.1891 102.306 96.4683 102.509C96.3889 102.168 96.3373 101.913 96.5309 101.639C96.7245 101.364 97.1125 101.413 97.5142 101.621C97.852 101.847 99.1608 102.815 100.193 103.075C100.662 103.22 101.283 102.514 101.437 102.21C100.951 102.102 99.3455 101.462 98.6942 101.075C98.244 100.844 96.2425 99.6916 96.1997 99.6824C96.2244 99.8107 96.2623 99.9981 96.2857 100.087C96.358 100.36 96.3192 100.533 96.1261 100.653C95.9246 100.793 93.8618 99.1236 93.6576 98.9945C93.6171 99.0434 93.2722 99.7661 93.0315 99.7516C92.8661 99.7383 91.2377 97.9772 91.0802 97.9278C90.9647 97.8912 89.7609 98.9993 89.3989 98.7025C89.2582 98.5553 89.122 97.695 88.9998 97.7029C88.7009 97.7391 85.5383 99.0042 84.8054 99.1951C84.9338 99.3851 85.5458 99.2798 85.802 99.2511ZM96.9203 101.878C96.937 102.033 97.1006 103.012 96.9035 103.134C96.6958 103.279 96.6808 103.268 95.0515 102.053C94.5726 101.695 93.9332 101.216 93.7136 101.082C93.6633 101.134 93.1585 102.077 92.9089 102.065C92.7343 102.053 92.6271 101.932 92.1963 101.427C92.1337 101.357 90.8752 99.9602 90.6596 99.8953C90.4872 99.8451 89.76 100.362 89.6895 100.408C88.7229 101.102 88.5267 100.898 88.431 100.8C88.2806 100.646 88.3379 99.5042 88.1699 99.4764C87.8899 99.4063 84.7402 99.8526 84.7402 99.8526L83.8644 100.707C83.8644 100.707 83.7639 100.808 83.793 100.88C83.991 101.183 87.8639 101.039 87.9984 101.135C88.1584 101.135 88.4076 101.664 88.367 102.09C88.3529 102.26 88.281 102.548 88.3578 102.625C88.5416 102.89 90.3086 101.36 90.7231 101.491C91.0626 101.591 91.6076 102.225 92.3784 103.11C92.6703 103.449 93.0584 103.864 93.1404 103.87C93.2215 103.875 93.8508 102.745 94.0708 102.829C94.3028 102.87 97.3145 105.258 97.4203 105.184C97.4653 105.154 97.0759 104.076 97.2069 103.9C97.3343 103.723 97.7144 103.785 97.994 103.927C98.1929 103.983 99.6599 105.01 99.8447 104.852C100.131 104.658 99.323 103.285 99.323 103.285C99.2882 103.265 96.9732 101.871 96.9203 101.878ZM106.243 104.682C106.15 104.996 105.847 105.386 105.847 105.386C105.847 105.386 106.262 105.704 106.426 105.977C106.562 106.186 106.89 106.616 107.503 106.553C108.405 106.357 108.307 105.552 108.307 105.552C107.601 105.587 106.296 104.736 106.243 104.682ZM108.164 103.812C108.164 103.812 108.137 104.437 107.47 104.413C107.146 104.413 106.374 104.32 106.534 104.416C106.696 104.513 108.295 105.213 108.513 105.187C108.733 105.163 109.375 105.054 109.006 104.283L108.164 103.812ZM110.911 95.5109L113.291 94.5227L113.351 96.866L109.322 102.131L108.8 101.803L110.466 98.8419L108.22 101.455L107.579 101.048L110.911 95.5109ZM110.215 103.273L109.628 104.038L105.681 101.52L106.189 100.716L110.215 103.273ZM103.977 111.82C104.041 111.691 104.058 111.535 104.051 111.448C104.051 110.866 103.723 110.424 103.065 110.151C103.065 110.151 102.088 109.818 101.894 109.818C101.727 109.818 101.313 109.989 101.023 110.08C102.289 110.359 103.599 111.008 103.977 111.82ZM105.334 105.302C105.691 105.302 105.995 103.878 105.995 103.878C105.995 103.878 107.642 104.653 107.855 103.438C107.805 102.266 105.224 102.591 105.224 102.591C104.57 102.226 103.558 102.442 103.444 102.558C103.305 102.675 102.919 103.054 102.515 103.655C102.24 104.043 101.6 104.184 101.205 104.071C101.205 104.071 100.262 103.783 100.219 103.802C100.284 103.959 100.785 105.236 100.77 105.405C100.785 105.51 100.703 105.689 100.478 105.697C100.253 105.704 100.007 105.645 98.9024 105.028C98.4698 104.785 97.8467 104.445 97.7731 104.478C97.699 104.516 97.8802 104.883 97.9662 105.084C98.1774 105.572 98.2846 105.834 98.2136 105.991C98.1871 106.045 98.1444 106.082 98.0888 106.099C98.0721 106.104 98.0553 106.106 98.0341 106.106C97.8595 106.106 97.5125 105.886 96.2557 105.011C95.4704 104.462 94.3574 103.632 94.0699 103.59C93.9416 103.672 93.6228 104.17 93.6228 104.17C93.6228 104.17 93.2228 104.787 93.0125 104.675C92.871 104.611 92.6148 104.319 92.1337 103.767C91.6288 103.189 90.8699 102.317 90.5846 102.231C90.3046 102.148 89.8764 102.455 89.4566 102.752C88.9143 103.143 88.3102 103.582 87.9137 103.231C87.729 103.032 87.7576 102.873 87.7938 102.49C87.8127 102.289 87.8798 102.039 87.7841 101.849C87.5764 101.554 86.9802 101.718 86.3946 101.735C85.5992 101.761 84.5651 101.69 83.8402 101.496C84.1268 102.267 84.3063 102.946 84.0166 103.182C82.531 104.95 80.242 105.214 77.1831 103.986C75.5004 103.554 74.3349 101.905 73.9566 101.302C73.7895 101.056 73.289 99.7648 73.3366 98.9296C73.356 98.4269 73.4539 97.9807 73.6285 97.6129C73.8036 97.2456 74.0973 96.9908 74.5461 96.9908C74.8354 96.9727 75.3072 97.1993 75.6018 97.5521C76.5662 98.7643 75.2499 100.598 74.3446 101.072C74.4518 101.233 75.6657 102.982 77.0997 103.537C77.1068 103.273 77.1623 103.074 77.2457 102.941C78.7172 100.656 78.9619 98.9389 78.5712 97.3506C78.3723 96.3875 76.8938 94.5659 74.816 94.5324C72.7356 94.4998 71.4643 95.1573 70.3116 96.9118C68.8415 99.6008 68.4535 102.176 69.1696 104.595C69.3967 105.327 69.9421 106.721 71.082 108.145C71.6676 108.823 72.5967 109.927 72.8604 110.007C72.7479 109.613 72.6258 108.89 72.7144 108.397C73.0513 109.316 73.2003 110.224 74.6313 111.155C74.6313 111.155 74.5907 110.594 74.5713 109.839C74.794 110.584 75.8686 111.946 77.2624 112.626C77.2624 112.626 76.8629 111.64 76.7783 111.05C76.9868 111.403 78.5403 112.954 79.9739 113.515C79.9739 113.515 79.4954 112.42 79.3274 111.768C79.6176 112.398 80.8452 113.613 82.2003 113.863C82.2003 113.863 82.0614 112.802 81.8942 112.425C82.6192 113.113 83.8834 114.077 85.257 113.807C85.257 113.807 84.6158 112.949 84.424 112.489C84.8566 112.971 86.7884 113.864 87.9477 113.322C87.9477 113.322 87.1429 112.956 86.7337 112.288C87.1218 112.771 88.9645 113.047 89.749 112.781C89.749 112.781 89.1105 112.271 88.6179 111.839C89.82 112.288 90.6975 112.173 90.6975 112.173L92.1191 112.028C92.1191 112.028 93.1536 112.127 93.9292 112.281C94.6833 112.455 101.344 114.178 101.457 114.206C104.011 114.786 102.247 113.225 102.912 113.423C102.964 113.441 103.528 113.626 103.755 113.443C103.91 113.385 104.002 113.188 104.002 112.955C104.002 112.867 103.916 112.504 103.786 112.293C103.671 112.078 102.938 111.055 100.464 110.3C99.4324 110.641 98.1638 110.193 97.6633 109.901C97.161 109.571 96.7941 109.163 96.6195 108.68C98.3979 108.74 99.8315 108.467 100.916 107.887C102.001 107.306 102.891 107.016 103.569 107.016C104.224 107.016 104.631 107.112 104.806 107.306C104.923 107.48 105.098 107.617 105.311 107.751C105.858 108.08 106.47 108.031 106.802 107.772C107.047 107.531 107.229 106.997 107.229 106.997C106.099 106.963 105.44 105.686 105.44 105.686C105.44 105.686 104.328 106.023 104.218 105.607C104.028 104.937 104.98 105.302 105.334 105.302ZM101.476 90.062H100.762L100.758 90.0739C100.583 90.4218 100.308 90.5907 99.9201 90.5907C99.5439 90.5907 99.3764 90.839 99.3693 90.846L99.3596 90.8663L99.3737 90.8782C99.379 90.8831 99.9174 91.3761 100.574 91.3761H100.586L101.476 90.062ZM93.5002 91.608C93.5099 91.358 94.0245 90.925 94.379 90.7658C94.5391 90.6983 95.1467 90.7309 95.6375 90.9977C96.0992 91.2473 96.3774 91.2548 96.5613 91.2081C96.8003 91.1379 97.1337 91.0489 97.5305 90.9558L97.5261 90.9095C96.7818 90.9095 96.1614 90.7614 95.6821 90.469C95.1684 90.1696 94.7009 90.025 94.2582 90.025C93.4305 90.0479 93.2026 90.6674 93.0205 91.1653C92.9869 91.2504 92.9561 91.3342 92.9226 91.4254C92.9896 92.3382 93.8102 92.9203 95.0603 92.9392C95.0713 92.9392 96.4775 92.8105 97.0755 92.3448L97.128 92.3029L97.0614 92.3003C96.9366 92.2955 96.7457 92.3052 96.5203 92.3197C96.2064 92.3387 95.8307 92.3638 95.5242 92.3448C95.1163 92.3144 93.7436 92.3193 93.5002 91.608ZM105.439 92.0128C105.325 92.1305 105.267 92.2262 105.342 92.3241C105.537 92.5014 105.659 92.8616 105.554 93.1165C105.455 93.4203 105.346 93.6108 104.996 93.8908C104.802 94.3022 104.465 94.7511 104.326 94.7679C104.191 94.7679 104.074 94.6722 103.962 94.4592C103.825 94.2462 103.505 94.1087 103.119 94.1087C102.352 94.1435 101.897 94.8398 101.897 94.8398C101.927 95.3927 102.468 95.5792 102.997 95.5867H103.771C104.098 95.5673 104.276 95.6454 104.257 95.8394C104.257 96.0132 104.214 96.2808 103.962 96.4748C103.692 96.6675 103.62 96.7954 103.62 96.9131C103.599 97.0278 103.581 97.2024 103.581 97.3964C103.563 97.6284 103.4 97.9159 103.072 97.8788C102.764 97.8391 102.55 97.7633 102.38 97.5702C102.213 97.3761 101.926 97.1627 101.462 97.1627C100.997 97.1208 100.664 97.2655 100.309 97.2386C99.9752 97.2805 99.9324 97.6703 99.8341 97.8788C99.4866 99.4129 100.679 101.151 100.774 101.34C100.53 101.471 98.0028 100.096 96.5618 99.2824C96.3558 99.1532 95.9065 98.9737 95.6671 99.3027C95.5881 99.4125 95.6569 99.7189 95.694 99.9346C95.4898 99.7873 93.8111 98.4424 93.6903 98.4098C93.2899 98.2832 93.0795 98.9689 92.9574 99.2044C92.9093 99.1484 91.5503 97.5252 91.2456 97.4317C90.8492 97.3096 89.8619 98.236 89.7878 98.2801C89.7574 97.8806 89.5126 97.2818 89.2401 97.2328C88.8715 97.2209 85.3505 98.456 84.8883 98.6382C85.4078 97.6037 88.7467 94.9906 88.7467 94.9906C88.7467 94.9906 86.6786 95.8363 85.4078 96.5079C86.071 94.7657 90.0471 91.6852 90.0471 91.6852C90.0471 91.6852 88.5677 92.329 87.3828 93.023C88.0218 91.1728 91.8228 88.8511 91.8228 88.8511C91.8228 88.8511 89.439 89.7648 88.8137 89.9734C89.6449 88.4485 91.9952 87.3779 92.1249 87.3334C92.2541 87.2902 94.6595 86.1031 95.1242 86.1234C95.3161 86.1207 97.12 86.9145 97.3498 87.0917C97.5777 87.2677 98.2475 87.9807 98.7696 88.0993C99.5955 88.1575 99.8081 88.3171 100.216 88.4904C100.62 88.6642 101.144 88.9539 101.743 89.3799C102.307 89.8071 102.925 89.9619 103.564 89.8468C103.873 89.7868 104.299 89.8468 104.821 90.0201C105.327 90.1745 105.634 90.4276 105.791 90.7561C105.925 91.0647 105.925 91.3161 105.809 91.5304C105.652 91.7226 105.535 91.8977 105.439 92.0128ZM68.6589 104.675C68.8649 105.36 69.3027 106.638 70.335 108.024C69.3389 108.426 68.8984 109.643 68.453 111.739C67.1579 111.972 66.1503 111.294 65.4342 109.649C64.0584 110.171 62.9 109.977 61.9688 109.067C62.1244 108.024 62.8396 107.112 64.039 106.338C63.632 104.846 63.8834 103.744 64.8531 102.989C65.6066 104.278 66.7293 104.874 68.6589 104.675Z" fill="#FCD71A"/>
<path d="M89.4733 18.3887H89.3966C74.6973 18.3887 59.7326 23.151 57.7911 27.0504C57.4154 27.8106 57.4603 28.5774 57.922 29.2177C58.1959 29.656 58.7272 30.1538 59.7185 30.1538C59.7635 30.1538 59.8036 30.1538 59.8495 30.1512L62.7651 36.463L63.1619 37.3233L64.0262 36.9357C64.1549 36.8797 77.0071 31.2174 89.4949 31.2174C101.982 31.2174 114.709 36.8775 114.833 36.9335L115.7 37.3233L116.097 36.463L119.017 30.1512C119.061 30.1538 119.106 30.1538 119.147 30.1538C120.14 30.1538 120.671 29.656 120.947 29.2177C121.404 28.5774 121.451 27.8106 121.073 27.0504C119.133 23.151 104.173 18.3887 89.4733 18.3887ZM89.4733 19.346C106.492 19.346 122.426 25.6671 120.148 28.6819C119.937 29.04 119.602 29.1943 119.147 29.1943C118.938 29.1943 118.706 29.1608 118.447 29.1013L115.228 36.0609C115.228 36.0609 102.346 30.2583 89.4949 30.2583C76.6428 30.2583 63.6359 36.0609 63.6359 36.0609L60.4192 29.1013C60.163 29.1612 59.9257 29.1943 59.718 29.1943C59.2678 29.1943 58.9327 29.04 58.7166 28.6819C56.4373 25.6671 72.3717 19.346 89.3957 19.346H89.4733Z" fill="#30302C"/>
<path d="M52.9408 13.0673L58.5779 25.1266C61.9363 22.4244 68.9497 20.2888 74.593 19.164C74.668 19.1485 81.8203 17.7613 89.7051 17.7613C97.5946 17.7613 104.206 19.1507 104.272 19.164C109.91 20.2888 116.927 22.4244 120.286 25.1266L125.918 13.0673L128.792 14.3024L130.832 9.959L120.194 5.39069L118.414 9.84435L120.625 10.7959L117.737 17.5999L117.252 17.2811C116.13 16.531 110.405 14.9965 108.291 14.47L107.85 14.3597L109.215 7.43497L112.277 8.02893L113.346 3.35215L101.982 1.1509L101.187 5.88192L103.805 6.38725L102.45 13.1471L101.969 13.0325C99.0132 12.3335 96.4235 12.1885 94.7716 12.1885C93.5087 12.1885 92.7401 12.2749 92.7326 12.2749L92.2062 12.3362L92.125 5.75712H95.1883L95.3484 0.960844H83.514L83.6723 5.75712H86.733L86.6571 12.3362L86.1254 12.2749C86.1179 12.2749 85.3546 12.1885 84.0864 12.1885C82.4372 12.1885 79.8492 12.3335 76.8935 13.0325L76.4093 13.1471L75.0569 6.38725L77.6762 5.88192L76.8807 1.1509L65.5164 3.35215L66.5835 8.02893L69.6451 7.43497L71.0098 14.3597L70.5689 14.47C68.4554 14.9965 62.73 16.531 61.6047 17.2811L61.1262 17.5999L58.2349 10.7959L60.4489 9.84435L58.6661 5.39069L48.0281 9.959L50.0679 14.3024L52.9408 13.0673ZM120.606 26.7021L120.123 26.2537C117.153 23.4862 109.888 21.2616 104.078 20.1019C104.007 20.0873 97.4888 18.7217 89.7046 18.7217C81.9155 18.7217 74.8514 20.0895 74.78 20.1041C68.973 21.2616 61.7065 23.4862 58.7349 26.2537L58.2521 26.7021L52.4667 14.3152L49.5939 15.5503L46.7383 9.46909L59.1918 4.12074L61.6836 10.3563L59.4907 11.3004L61.5756 16.2096C63.4695 15.3241 68.3046 14.0555 69.8911 13.6507L68.8888 8.5594L65.8559 9.14632L64.3571 2.59591L77.6639 0.0202863L78.7742 6.64256L76.1875 7.14525L77.1567 11.9865C79.9974 11.3617 82.4773 11.2263 84.0864 11.2263C84.7875 11.2263 85.3409 11.2541 85.7091 11.2757L85.7638 6.71444H82.7432L82.5205 0H96.3366L96.1139 6.71444H93.096L93.1502 11.2757C93.5215 11.2541 94.0696 11.2263 94.7707 11.2263C96.3838 11.2263 98.8615 11.3612 101.703 11.9865L102.67 7.14525L100.086 6.64256L101.196 0.0202863L114.503 2.59591L113.006 9.14632L109.971 8.5594L108.965 13.6507C110.557 14.0555 115.392 15.3237 117.286 16.2096L119.369 11.3004L117.173 10.3563L119.669 4.12074L132.121 9.46909L129.268 15.5503L126.395 14.3152L120.606 26.7021Z" fill="#30302C"/>
<path d="M142.965 164.524H139.074V181.927H142.965V164.524ZM112.361 174.683L114.905 167.995L117.61 174.683H112.361ZM113.11 164.524L105.622 181.927H109.57L111.171 177.802H118.807L120.449 181.927H124.595L117.059 164.524H113.11ZM14.5352 164.524H8.3407L7.78289 164.578H7.29034L6.84012 164.627L6.33743 164.673L5.4423 164.879L4.64282 165.078L4.24377 165.23L3.89365 165.429L3.69478 165.48L3.54178 165.579L3.35083 165.681L2.74718 166.086L2.59681 166.235L2.44555 166.338L2.29739 166.487L2.14614 166.588L2.04074 166.74L1.89745 166.885L1.79469 167.04L1.6893 167.138L1.5504 167.337L1.24703 167.79L1.14604 167.994L0.948067 168.347L0.799475 168.7L0.653495 169.1L0.500059 169.554L0.404353 169.958L0.298986 170.406L0.205487 170.911L0.148161 171.364L0.100093 171.919L0.050275 172.416L0 172.973V174.127L0.050275 174.686L0.100093 174.936V175.235L0.205487 175.738V175.993L0.298986 176.243L0.351441 176.495L0.404353 176.745L0.450215 176.949L0.552972 177.199L0.597945 177.396L0.700675 177.602L0.799475 177.852L0.898249 178.051L0.948067 178.254L1.10107 178.453L1.20162 178.603L1.3004 178.806L1.39828 179.01L1.55129 179.162L1.69019 179.36L1.79558 179.51L2.54476 180.265L2.74804 180.37L3.24898 180.764L3.54264 180.921L3.79665 181.122L4.09871 181.223L4.39236 181.37L4.64371 181.471L4.94135 181.574L5.29061 181.623L5.59221 181.728L6.79117 181.873H7.24405L7.7366 181.927H14.537V178.91H8.1361L7.83933 178.861H7.543L7.04251 178.755L6.84101 178.704L6.58789 178.655L6.38638 178.603L6.18838 178.508L5.9873 178.454L5.59221 178.255L5.44362 178.101L5.29061 178L5.14156 177.853L4.84258 177.397L4.69221 177.199L4.58948 177.046L4.54626 176.795L4.45015 176.594L4.39193 176.39L4.29405 176.145L4.2442 175.892L4.19834 175.588L4.14368 175.336V175.034L4.09782 174.686V172.524L4.14368 172.166V171.821L4.19834 171.465L4.2442 171.164L4.34212 170.862L4.39193 170.561L4.49555 170.308L4.54583 170.056L4.64328 169.806L4.7438 169.554L4.94092 169.152L5.0957 168.948L5.23988 168.798L5.34264 168.6L5.48859 168.446L5.69187 168.348L5.84533 168.196L6.84101 167.693L7.59018 167.543H8.13565L8.43727 167.492H14.5366V164.524H14.5352ZM28.9214 151.838L28.9761 151.536V150.229L28.9214 149.931V149.678L28.8734 149.384L28.8205 149.127L28.7199 148.879L28.6701 148.629L28.574 148.377L28.2794 147.771L28.1242 147.575L27.9729 147.423L27.8799 147.277L27.6784 147.121L27.5293 146.973L27.3291 146.874L27.1303 146.722L26.7352 146.526L26.2329 146.32L25.9842 146.271L25.6839 146.222L25.3876 146.119H25.0856L24.7893 146.072L24.4418 146.019H24.0925L23.745 145.969H17.9191L17.4187 145.871L17.2255 145.817L17.0267 145.716L16.9737 145.665L16.7753 145.564L16.6765 145.466L16.5786 145.419L16.5288 145.317L16.4785 145.267L16.4305 145.164L16.3784 145.116L16.3308 145.018L16.2735 144.918L16.2321 144.763L16.1752 144.567L16.132 144.315V143.815L16.1752 143.663V143.413L16.2321 143.312L16.2735 143.212L16.3308 143.057V142.959L16.3784 142.861L16.5297 142.711L16.5795 142.609L16.7228 142.457L16.8282 142.41L16.927 142.308L17.4195 142.055L17.7216 141.959L17.9703 141.903L18.3169 141.859H28.1242V138.745H17.6713L17.3168 138.798L16.927 138.849L16.5795 138.902L15.9763 138.998L15.6315 139.05L15.3881 139.152L15.0886 139.253L14.5833 139.449L14.339 139.601L14.13 139.751L13.9369 139.854L13.7384 140.003L13.391 140.354L12.9456 140.954L12.8402 141.204L12.7423 141.404L12.5465 141.902L12.4954 142.211L12.3935 142.456L12.2952 143.057V143.714L12.2476 144.065L12.2952 144.362V144.966L12.345 145.267L12.4478 145.77L12.6436 146.27L12.6991 146.525L12.7926 146.722L12.9456 146.972L13.0444 147.12L13.3433 147.523L13.4915 147.677L13.6855 147.822L13.8359 147.978L14.0374 148.125L14.2363 148.224L14.4894 148.324L14.7407 148.476L14.9828 148.579L15.2359 148.628L15.4806 148.726L15.7849 148.78L16.0812 148.878L16.378 148.925H16.677L17.3719 149.03H22.853L23.1476 149.079H23.4492L23.693 149.126L23.9404 149.226L24.1909 149.28L24.2949 149.327L24.3421 149.383L24.5379 149.484L24.5908 149.526L24.6358 149.629L24.7368 149.676L24.7897 149.731L24.8413 149.832L24.8893 149.93L24.9396 149.981L24.9894 150.083V150.182L25.0353 150.284V150.432L25.0851 150.53V150.782L25.1376 151.032L25.0851 151.284V151.535L25.0353 151.635V151.733L24.9894 151.837L24.9396 151.939L24.8893 152.037L24.8413 152.084L24.7897 152.184L24.7368 152.236L24.6909 152.337L24.4876 152.536L24.0925 152.737L23.8385 152.79L23.5947 152.891H23.2979L22.9981 152.939L22.6017 152.994H12.9451V156.047H23.5947L23.9391 156.001H24.294L24.9894 155.9L25.2871 155.848L25.885 155.645L26.1337 155.596L26.3802 155.448L26.8833 155.246L27.2784 154.94L27.5289 154.795L27.6779 154.644L27.8795 154.492L28.1714 154.094L28.2785 153.895L28.4245 153.692L28.6163 153.187L28.719 152.939L28.8196 152.438L28.9214 151.838ZM28.4576 173.977L28.4046 174.331V174.684L28.3491 174.985L28.3041 175.336L28.2516 175.638L28.1529 175.893L28.1026 176.192L27.6982 177.2L27.4059 177.603L27.3036 177.802L27.1545 178.001L26.957 178.155L26.7987 178.305L26.6055 178.454L26.4565 178.557L26.2581 178.704L26.0107 178.809L25.8101 178.91L25.5587 179.011L25.3599 179.057L25.1133 179.163H24.8091L24.5626 179.209L24.261 179.261H23.1163L22.8129 179.209L22.5642 179.163H22.2621L22.0134 179.057L21.8128 179.011L21.3194 178.81L21.1183 178.705L20.915 178.558L20.7642 178.455L20.5675 178.305L20.2157 177.954L20.1178 177.803L19.821 177.398L19.713 177.146L19.5626 176.95L19.4638 176.698L19.418 176.445L19.2248 175.84L19.1146 175.239L19.0665 174.937L19.0167 174.584L18.973 174.231V172.018L19.0167 171.667L19.0665 171.366L19.1653 170.76L19.2252 170.459L19.3254 170.209L19.5189 169.705L19.6199 169.455L19.713 169.256L19.8691 169.059L19.9621 168.851L20.2597 168.447L20.4145 168.3L20.6187 168.148L20.7646 167.996L20.9723 167.898L21.1668 167.743L21.4133 167.642L21.8132 167.444L22.5646 167.293L22.8662 167.24L23.1167 167.192H23.7089H24.2614L24.563 167.24L24.8095 167.293L25.1138 167.338L25.3603 167.39L25.5591 167.444L25.8105 167.545L26.0111 167.643L26.2585 167.744L26.4569 167.898L26.606 167.996L26.7991 168.148L27.3045 168.646L27.4068 168.852L27.6991 169.257L28.1035 170.26L28.1537 170.564L28.2525 170.815L28.305 171.117L28.35 171.468L28.4055 171.769V172.122L28.4584 172.473V173.977H28.4576ZM29.2998 165.529L29.1031 165.429L28.9598 165.328L28.7512 165.23L28.5978 165.127L28.4046 165.078L28.2115 164.978L28.01 164.931L27.8085 164.825L27.6008 164.776L27.1545 164.627L25.8096 164.325L25.3118 164.274L24.754 164.22H22.6136L21.6223 164.325L21.1174 164.425L20.2148 164.627L19.8201 164.776L19.4175 164.877L19.0158 165.078L18.8169 165.127L18.6278 165.23L18.3191 165.429L18.1211 165.53L17.9672 165.635L17.8265 165.784L17.618 165.882L17.4689 165.983L16.9239 166.535L16.8212 166.689L16.6752 166.835L16.5747 166.988L16.4261 167.139L16.2228 167.443L16.1218 167.642L16.0239 167.791L15.9185 167.995L15.8228 168.147L15.7294 168.348L15.6694 168.547L15.471 168.949L15.4251 169.152L15.2765 169.555L15.176 170.006L15.0732 170.459L15.0216 170.959L14.9687 171.466L14.9272 171.968L14.8774 172.525V173.075V173.626L14.9272 174.231L14.9687 174.736L15.0216 175.29L15.0732 175.79L15.176 176.243L15.2765 176.747L15.4251 177.2L15.471 177.397L15.571 177.603L15.624 177.802L15.8228 178.204L15.8727 178.406L15.9781 178.604L16.0715 178.756L16.1703 178.958L16.2726 179.112L16.4261 179.261L16.5191 179.46L16.6196 179.615L16.7683 179.764L16.8741 179.918L17.02 180.063L17.1748 180.166L17.2718 180.317L17.4266 180.467L17.719 180.667L17.9227 180.819L18.2221 181.018L18.4227 181.123L18.5687 181.224L18.973 181.423L19.1653 181.472L19.3655 181.575L19.5626 181.624L19.7632 181.729L20.1649 181.822L20.4136 181.927L20.6178 181.976L21.1178 182.079L21.5733 182.126L22.0628 182.18L22.6136 182.229L23.1158 182.278H24.2605L24.754 182.229L25.3118 182.18L25.8096 182.126L26.2576 182.079L27.1545 181.873L27.6008 181.729L27.8085 181.623L28.01 181.574L28.2115 181.471L28.4046 181.422L28.5978 181.322L28.7512 181.224L28.9598 181.123L29.1031 181.018L29.2998 180.919L29.6058 180.718L29.7562 180.566L29.9026 180.467L30.1998 180.165L30.3528 180.062L30.4573 179.918L30.5962 179.763L30.6998 179.614L30.8458 179.459L31.0535 179.163L31.195 178.957L31.2977 178.809L31.3983 178.603L31.4481 178.454L31.6514 178.051L31.793 177.649L31.9491 177.247L32.1021 176.795L32.2983 175.893L32.3507 175.387L32.3993 174.884L32.4998 173.776V172.669L32.4522 172.12L32.3997 171.565L32.3512 171.063L32.2987 170.561L32.1982 170.11L32.1021 169.654L31.9491 169.201L31.6514 168.396L31.5416 168.195L31.4486 168.046L31.3987 167.845L31.2982 167.693L31.1954 167.492L31.0539 167.338L30.9485 167.139L30.8467 166.988L30.7007 166.835L30.5971 166.689L30.0521 166.132L29.9034 166.034L29.7571 165.882L29.4488 165.681L29.2998 165.529ZM41.0636 148.879H35.8458L38.3808 142.211L41.0636 148.879ZM43.9117 156.048H48.0364L40.523 138.746H36.5884L29.1181 156.048H33.055L34.6499 151.941H42.2586L43.9117 156.048ZM45.8753 170.111L45.8281 170.258V170.507L45.7757 170.607L45.7298 170.759L45.6244 170.958L45.5773 171.065L45.527 171.115L45.4771 171.213L45.3718 171.314L45.3312 171.367L45.2258 171.468L44.7249 171.716L44.5789 171.768L44.4735 171.822L44.2804 171.868H44.13L43.4333 171.969L43.0303 172.018H38.0378V167.643H42.584H43.0307L43.4338 167.694H43.8355L44.1803 167.744L44.6349 167.898H44.7253L44.8788 167.947L44.9797 167.996L45.0776 168.094L45.2734 168.197L45.4264 168.349L45.4776 168.447L45.5274 168.499L45.5777 168.6L45.6804 168.798L45.7303 168.901L45.7761 169.003L45.8286 169.153V169.401L45.8758 169.556V170.111H45.8753ZM49.0665 166.941L48.465 166.132L48.1202 165.781L47.9769 165.681L47.7185 165.529L47.5223 165.382L47.2736 165.23L47.0721 165.129L46.7731 165.026L46.5227 164.931L46.2307 164.879L45.9216 164.776L45.6244 164.725L44.5785 164.578H43.8341L43.4823 164.523H34.2927V181.927H38.0365V175.081H42.3812L46.2753 181.927H50.4763L46.0786 174.632L46.8781 174.431L47.0712 174.33L47.2229 174.229L47.4187 174.18L47.7181 173.977L47.9249 173.876L48.465 173.325L48.566 173.176L48.7191 173.024L48.925 172.72L49.0158 172.524L49.1238 172.369L49.1671 172.166L49.265 171.967L49.3174 171.766L49.4184 171.565L49.4656 171.366L49.5185 171.163V170.957L49.5657 170.711L49.6212 170.505V169.099L49.5185 168.496L49.4656 168.246L49.4184 167.944L49.3174 167.692L49.265 167.442L49.0665 166.941ZM59.9837 156.048H64.268V138.746H60.4789L60.6831 151.188L53.4611 138.746H48.7834V156.048H52.5677L52.4125 142.96L59.9837 156.048ZM64.0956 170.507L64.0458 170.658V170.813L64 170.958V171.114L63.8968 171.313L63.8443 171.465L63.7914 171.566L63.701 171.666L63.6436 171.767L63.2962 172.123L63.1476 172.218L63.0545 172.27L62.9417 172.371L62.6427 172.472L62.5421 172.523L62.0968 172.67H61.9027L61.7453 172.722H61.5487L61.2021 172.771H56.2515V167.643H60.5481H60.9984L61.4503 167.694H61.6519L61.8401 167.744H62.0514L62.3486 167.844L62.5421 167.898H62.6925L62.7979 167.997L63.1 168.095L63.2005 168.149L63.2962 168.249L63.395 168.303L63.4955 168.399L63.5427 168.5L63.6436 168.549L63.701 168.647L63.7914 168.801L63.8443 168.902L63.8968 169.003L63.9497 169.155L64 169.257V169.402L64.0458 169.557V169.706L64.0956 169.861V170.507ZM68.1855 170.605L68.2411 170.209L68.1855 169.806V169.453L68.1339 169.058L68.0378 168.7L67.9919 168.347L67.8918 168.046L67.7362 167.693L67.5902 167.389L67.5373 167.242L67.2428 166.79L67.14 166.689L67.0395 166.535L66.9389 166.437L66.7356 166.135L66.587 166.034L66.4909 165.934L66.3352 165.833L66.0914 165.578L65.5936 165.328L65.3876 165.181L65.1888 165.13L64.6909 164.931L64.4396 164.879L63.5413 164.725L63.1996 164.673L62.7975 164.627L62.4412 164.578H61.1007L60.5971 164.524H52.5523V181.927H56.2506V175.839H61.8397L62.3477 175.79H62.7975L63.1996 175.738L63.8959 175.64L64.1935 175.588L64.44 175.488L64.7443 175.441L65.7444 175.034L65.9353 174.884L66.1897 174.735L66.4384 174.534L66.6373 174.33L66.8931 174.127L67.0889 173.877L67.2904 173.678L67.5898 173.177L67.7357 172.877L67.8363 172.569L67.939 172.321L68.0374 171.968L68.0903 171.666L68.1851 170.958V170.605H68.1855ZM74.2306 169.255L74.8312 168.446L75.1275 168.147L75.329 167.995L75.5248 167.897L75.7254 167.742L76.1285 167.543L76.3816 167.443L77.3702 167.239L77.6722 167.192H78.2217H78.8205L79.0723 167.239L79.366 167.292L80.1178 167.443L80.314 167.543L80.568 167.641L80.7633 167.742L80.9693 167.897L81.1659 167.995L81.3194 168.147L81.5112 168.299L81.6712 168.498L81.8119 168.645L82.1136 169.059L82.2123 169.255L82.4156 169.754L82.5616 170.006L82.6114 170.258L82.7124 170.562L82.7697 170.814L82.8129 171.115L82.8627 171.466L82.9086 171.768L82.9558 172.121V172.472L83.0131 172.825V173.626L82.9558 173.978V174.332L82.9086 174.685L82.8627 174.986L82.8129 175.337L82.7697 175.639L82.7124 175.894L82.6114 176.193L82.5616 176.445L82.4156 176.698L82.2123 177.201L82.1136 177.398L81.6712 178.001L81.5112 178.155L81.3194 178.305L81.1659 178.455L80.9693 178.558L80.7633 178.705L80.568 178.81L80.314 178.911L80.1178 179.011L79.8691 179.058L79.6177 179.164H79.3664L79.0727 179.21L78.8209 179.261H77.6193L77.3706 179.21L77.062 179.164H76.8256L76.5738 179.058L76.3225 179.011L76.0738 178.911L75.684 178.705L75.4754 178.558L75.2796 178.455L75.1279 178.305L74.9277 178.155L74.7712 177.954L74.6252 177.803L74.3316 177.398L74.231 177.146L74.1274 176.95L73.9267 176.445L73.8262 176.146L73.7755 175.84L73.6847 175.538L73.6247 175.239L73.5749 174.938L73.525 174.585V174.232L73.4814 173.879V172.372L73.525 172.019L73.5749 171.668V171.366L73.6847 170.761L73.7755 170.46L73.8262 170.21L73.9267 169.958L74.1274 169.455L74.2306 169.255ZM74.3311 164.776L73.9263 164.877L73.7332 164.978L73.5749 165.078L73.3786 165.127L72.9743 165.329L72.6775 165.53L72.4835 165.635L72.3349 165.784L72.0337 165.983L71.8878 166.133L71.7317 166.236L71.5831 166.387L71.4825 166.535L71.1853 166.835L70.982 167.139L70.8833 167.292L70.7303 167.443L70.6297 167.641L70.5393 167.791L70.4357 167.995L70.3352 168.147L70.2823 168.348L70.079 168.75L70.0331 168.949L69.9815 169.152L69.84 169.555L69.7372 170.006L69.6318 170.459L69.5313 170.958L69.4841 171.466L69.4356 171.968V171.971V171.975V171.978V171.987V171.998V172.005V172.015V172.027V172.043V172.054V172.071V172.087V172.103V172.125V172.142V172.16V172.181V172.204V172.223V172.247V172.273V172.298V172.322V172.341V172.368V172.393V172.41V172.418V172.446V172.472V172.493V172.526V172.55V172.577V172.605V172.626V172.653V172.676V172.702V172.725V172.754V172.774V172.796V172.819V172.831V172.842V172.862V172.882V172.904V172.924V172.941V172.958V172.978V172.99V173.007V173.015V173.03V173.042V173.049V173.058V173.063V173.071V173.076V173.078V173.081V173.083V173.088V173.098V173.107V173.115V173.13V173.141V173.151V173.17V173.185V173.202V173.218V173.237V173.254V173.256V173.277V173.298V173.323V173.343V173.369V173.394V173.418V173.441V173.467V173.495V173.519V173.551V173.573V173.601V173.628V173.655V173.676V173.679V173.709V173.738V173.76V173.792V173.816V173.842V173.865V173.891V173.922V173.942V173.969V173.985V174.013V174.032V174.055V174.074V174.095V174.102V174.111V174.125V174.144V174.158V174.172V174.184V174.2V174.205V174.214V174.219V174.228V174.231V174.233L69.4841 174.738L69.5313 175.292L69.6318 175.792L69.7372 176.246L69.84 176.749L69.933 177.202L70.0336 177.4L70.0794 177.606L70.1879 177.804L70.2351 178.003L70.5393 178.606L70.6297 178.758L70.7303 178.959L70.9362 179.263L71.035 179.462L71.1853 179.616L71.2766 179.766L71.4301 179.92L71.5306 180.065L71.6885 180.168L71.9852 180.47L72.2798 180.669L72.4275 180.822L72.584 180.922L72.7847 181.02L72.9275 181.125L73.3279 181.324L73.4809 181.425L73.6842 181.474L73.8805 181.577L74.0745 181.626L74.2804 181.731L74.4713 181.778L74.7258 181.824L74.9273 181.93L75.1777 181.979L75.6227 182.081L77.1193 182.231L77.6669 182.28H77.6727H77.6753H77.6841H77.6916H77.7018H77.7088H77.7181H77.7274H77.7423H77.7512H77.7688H77.7957H77.8111H77.8288H77.8305H77.8455H77.8667H77.8835H77.9055H77.9293H77.9505H77.9725H77.9963H78.0206H78.0396H78.0731H78.0969H78.1233H78.1458H78.167H78.1983H78.2239H78.2486H78.2508H78.2755H78.2993H78.3257H78.3526H78.3791H78.4095H78.4289H78.4527H78.477H78.4915H78.5198H78.5361H78.5612H78.5749H78.5991H78.6181H78.6375H78.656H78.6635H78.6736H78.6895H78.7014H78.7138H78.7252H78.7371H78.7468H78.7539H78.761H78.764H78.7711H78.7737L79.3219 182.231L80.8154 182.081L81.7154 181.875L82.1171 181.731L82.3213 181.625L82.5651 181.576L82.7163 181.474L82.9125 181.424L83.3116 181.226L83.4699 181.125L83.6657 181.02L84.1093 180.721L84.3197 180.569L84.4612 180.47L84.616 180.319L84.7094 180.168L84.8655 180.065L85.0168 179.921L85.1098 179.766L85.2659 179.617L85.3638 179.462L85.5098 179.317L85.6125 179.166L85.7179 178.96L85.811 178.813L85.9071 178.607L86.0098 178.457L86.1196 178.256L86.1655 178.055L86.3569 177.652L86.4623 177.25L86.6109 176.798L86.8097 175.896L86.9151 175.39L86.9601 174.888L87.0113 174.333V172.123L86.9601 171.568L86.9151 171.066L86.8097 170.564L86.7092 170.113L86.6104 169.657L86.4618 169.204L86.3564 168.799L86.1651 168.399L86.1192 168.198L86.0067 168.046L85.904 167.845L85.8079 167.693L85.7148 167.492L85.6094 167.338L85.5067 167.139L85.3607 166.988L85.2628 166.835L85.1068 166.689L85.0137 166.535L84.8625 166.438L84.7064 166.282L84.6129 166.132L84.4581 166.034L84.3166 165.882L84.1062 165.784L83.9603 165.681L83.8112 165.529L83.6626 165.429L83.4668 165.328L83.3085 165.23L83.1154 165.127L82.9095 165.078L82.7132 164.978L82.562 164.931L82.3182 164.825L82.114 164.776L81.7123 164.627L80.8123 164.425L80.3144 164.325L79.3188 164.22H79.3113H79.2994H79.2967H79.2808H79.2632H79.2517H79.2231H79.2037H79.1799H79.153H79.1225H79.089H79.0727H79.063H79.0171H78.981H78.9475H78.8924H78.8615H78.8209H78.7777H78.7345H78.6864H78.66H78.6441H78.5912H78.548H78.4924H78.4492H78.402H78.3495H78.2966H78.2464H78.1965H78.1441H78.0982H78.0431H77.9954H77.9496H77.9024H77.8495H77.8301H77.8107H77.7507H77.7102H77.6669H77.6264H77.5858H77.5474H77.5095H77.469H77.4319H77.416H77.3984H77.3706H77.3371H77.3151H77.2912H77.2701H77.2454H77.2313H77.2075H77.1982H77.1885H77.1815H77.174L76.6263 164.274L76.1285 164.325L74.7703 164.627L74.3311 164.776ZM90.251 156.048H93.8818V138.746H88.4483L83.9744 152.039L79.4956 138.746H74.0194V156.048H77.8014L77.4566 142.457L82.0836 156.048H86.0134L90.5424 142.56L90.251 156.048ZM96.5632 156.048H100.448V138.746H96.5632V156.048ZM100.187 169.806L100.137 169.959V170.258L100.082 170.358V170.507L100.032 170.607V170.759L99.9387 170.958L99.8858 171.065L99.7302 171.213L99.6817 171.314L99.5886 171.367L99.541 171.468L99.1367 171.666L98.9832 171.715L98.8875 171.767L98.5855 171.867H98.4395L97.7384 171.968L97.2948 172.017H92.2996V167.642H96.8433H97.3437L97.7388 167.693H98.141L98.4399 167.743L98.8879 167.897H99.0366L99.1371 167.946L99.2857 167.995L99.4387 168.148L99.6376 168.248L99.7311 168.447L99.8356 168.499L99.8863 168.6L99.9815 168.798L100.032 168.901L100.083 169.003V169.153L100.138 169.256V169.655L100.187 169.806ZM102.781 166.132L102.428 165.781L102.229 165.681L101.831 165.382L101.575 165.23L101.084 165.026L100.783 164.931L100.531 164.879L100.187 164.776L99.5886 164.673L98.8875 164.578H98.141L97.7388 164.524H88.5991V181.927H92.2996V175.081H96.6942L100.582 181.927H104.782L100.332 174.632L100.582 174.583L101.184 174.431L101.338 174.33L101.529 174.23L101.685 174.181L101.879 174.08L102.176 173.876L102.487 173.573L102.63 173.478L102.781 173.326L103.078 172.877L103.234 172.72L103.322 172.524L103.375 172.37L103.477 172.166L103.533 171.967L103.636 171.766L103.732 171.366L103.777 171.163L103.828 170.957L103.882 170.712V170.257L103.932 170.004V169.453L103.882 169.1V168.796L103.828 168.497L103.777 168.247L103.732 167.945L103.43 167.192L103.322 166.941L103.234 166.74L102.781 166.132ZM109.757 156.048H118.767V145.771H110.008V148.879H114.982V152.94H110.557L110.309 152.892H110.051L109.564 152.791L109.362 152.738L109.111 152.688L108.907 152.64L108.714 152.538L108.565 152.438L108.364 152.34L108.211 152.237L108.072 152.086L107.919 151.987L107.768 151.791L107.619 151.636L107.528 151.487L107.375 151.337L107.172 150.935L107.121 150.729L107.019 150.481L106.926 150.229L106.873 149.981L106.767 149.482L106.724 149.182V148.878L106.674 148.579V148.224L106.624 147.873V147.173L106.674 146.822V146.474L106.724 146.119V145.817L106.873 144.917L106.971 144.662L107.019 144.415L107.121 144.165L107.222 143.91L107.268 143.713L107.424 143.51L107.62 143.113L108.211 142.507L108.364 142.409L108.566 142.257L108.714 142.159L108.908 142.054L109.166 142.004L109.362 141.904L109.564 141.857L110.052 141.755H118.767V138.745H110.31L108.812 138.9L108.364 138.943L107.919 139.049L107.528 139.198L107.121 139.297L106.724 139.446L106.378 139.601L106.226 139.701L106.03 139.799L105.877 139.898L105.678 140.006L105.23 140.302L105.084 140.456L104.783 140.65L104.68 140.803L104.537 140.954L104.44 141.106L104.28 141.204L104.085 141.505L103.986 141.704L103.844 141.858L103.735 142.005L103.682 142.209L103.289 142.913L103.141 143.312L103.04 143.715L102.887 144.166L102.693 145.07L102.638 145.565L102.591 146.072L102.543 146.622V148.879L102.591 149.127V149.384L102.638 149.678L102.693 149.931L102.789 150.433L102.844 150.631L102.887 150.881L102.937 151.134L103.04 151.338L103.141 151.59L103.186 151.791L103.784 152.995L103.89 153.141L104.039 153.345L104.185 153.491L104.28 153.639L104.44 153.788L104.589 153.994L104.884 154.296L105.03 154.394L105.23 154.544L105.729 154.941L106.03 155.095L106.272 155.247L106.569 155.398L106.873 155.496L107.121 155.597L107.715 155.798L108.072 155.85L108.469 155.951L108.867 156H109.314L109.757 156.048ZM135.792 150.881L135.844 150.481V138.745H132.156V149.677L132.103 149.981V150.229L132.058 150.481V150.729L132.007 150.984L131.957 151.188L131.914 151.384L131.81 151.59L131.76 151.791L131.362 152.39L131.262 152.538L131.168 152.64L131.014 152.739L130.916 152.839L130.763 152.94L130.615 152.995L130.419 153.09L130.263 153.188L129.671 153.345L129.418 153.392H129.221L128.977 153.441H127.431L127.18 153.392H126.978L126.729 153.345L126.332 153.242L126.186 153.188L125.987 153.09L125.834 152.995L125.694 152.94L125.242 152.641L125.138 152.49L125.038 152.39L124.744 151.941L124.686 151.791L124.593 151.59L124.547 151.384L124.49 151.188L124.392 150.984V150.729L124.296 150.229V149.981L124.241 149.677V138.745H120.559V150.131L120.612 150.53V150.935L120.662 151.285L120.712 151.636L120.76 151.886L120.805 152.185L120.855 152.438L120.908 152.688L121.013 152.939L121.303 153.543L121.459 153.739L121.557 153.895L121.95 154.295L122.15 154.444L122.251 154.594L122.457 154.697L122.606 154.795L122.752 154.94L122.948 155.047L123.098 155.146L123.292 155.246L123.448 155.347L123.849 155.553L124.043 155.596L124.239 155.696L124.641 155.797L124.835 155.9L125.089 155.949L125.293 155.998L125.785 156.099H126.031L126.535 156.197H127.08L127.633 156.251H128.772L129.321 156.197H129.864L130.371 156.099H130.613L131.36 155.949L131.561 155.9L131.757 155.797L132.154 155.696L132.357 155.596L132.549 155.553L133.158 155.246L133.447 155.048L133.656 154.94L133.794 154.795L133.947 154.697L134.143 154.594L134.248 154.445L134.394 154.295L134.543 154.197L134.84 153.896L134.943 153.692L135.091 153.543L135.194 153.344L135.29 153.14L135.397 152.892L135.493 152.688L135.543 152.438L135.589 152.139L135.689 151.887L135.74 151.538L135.79 151.237V150.881H135.792ZM131.534 167.592H137.218V164.578H121.952V167.592H127.692V181.927H131.534L131.534 167.592ZM145.05 156.048H152.313V153.045H145.701L145.451 152.995H145.203L144.953 152.94L144.759 152.892L144.508 152.839L143.905 152.688L143.756 152.59L143.563 152.489L143.462 152.389L143.007 152.085L142.514 151.337L142.416 151.134L142.361 150.935L142.308 150.729L142.212 150.53V150.334L142.163 150.082L142.115 149.876L142.062 149.631V148.832H152.314V145.771H142.062L142.115 145.518V145.317L142.163 145.071V144.812L142.212 144.616L142.261 144.416L142.308 144.215L142.415 144.014L142.466 143.812L142.561 143.663L142.665 143.464L143.057 142.86L143.205 142.76L143.462 142.508L143.756 142.306L143.957 142.208L144.106 142.159L144.306 142.054L144.451 142.007L145.05 141.857H145.298L145.506 141.808L145.75 141.754H146.248H152.314V138.744H145.65L144.156 138.9L143.706 138.943L143.311 139.051L142.864 139.152L142.467 139.296L142.115 139.446L141.719 139.6L141.519 139.701L141.215 139.897L141.019 140.003L140.423 140.403L139.635 141.204L139.324 141.658L139.176 141.858L139.077 142.007L139.027 142.159L138.831 142.561L138.682 142.912L138.379 143.714L138.28 144.165L138.127 144.615L138.081 145.071L137.986 145.564L137.934 146.069L137.888 146.621V148.277L137.934 148.877V149.126L137.986 149.383V149.676L138.027 149.929L138.127 150.431L138.185 150.627L138.234 150.88L138.331 151.132L138.379 151.336L138.484 151.588L138.529 151.789L139.126 152.993L139.276 153.139L139.379 153.343L139.683 153.637L139.776 153.786L139.922 153.99L140.224 154.294L140.423 154.392L140.571 154.544L140.825 154.743L141.12 154.94L141.366 155.093L141.67 155.246L141.917 155.396L142.213 155.494L142.515 155.644L142.81 155.747L143.112 155.795L143.464 155.847L143.81 155.948L144.205 155.997H144.603L145.05 156.048ZM154.993 167.443L155.192 167.543L155.441 167.641L155.643 167.742L155.846 167.897L155.987 167.995L156.392 168.299L156.545 168.498L156.685 168.645L156.844 168.851L156.943 169.059L157.095 169.255L157.382 170.006L157.49 170.258L157.593 170.562L157.636 170.814L157.693 171.115L157.737 171.466L157.784 171.768V172.121L157.837 172.472V173.978L157.784 174.332V174.685L157.737 174.986L157.693 175.337L157.636 175.639L157.593 175.894L157.49 176.193L157.095 177.201L156.942 177.398L156.843 177.604L156.544 178.001L156.391 178.155L155.986 178.455L155.845 178.558L155.642 178.705L155.44 178.81L155.191 178.911L154.993 179.011L154.742 179.058L154.491 179.164H154.194L153.704 179.261H152.497L152.203 179.21L151.946 179.164H151.697L151.449 179.058L151.195 179.011L150.949 178.911L150.75 178.81L150.499 178.705L150.346 178.558L150.15 178.455L149.958 178.305L149.809 178.155L149.649 177.954L149.503 177.803L149.201 177.398L149.104 177.146L149.003 176.95L148.806 176.445L148.701 176.146L148.598 175.84L148.505 175.239L148.455 174.938L148.408 174.585L148.35 174.232V172.019L148.408 171.668L148.455 171.366L148.548 170.761L148.654 170.46L148.701 170.21L148.806 169.958L149.003 169.455L149.104 169.256L149.251 169.06L149.354 168.852L149.649 168.447L149.809 168.3L150.206 167.996L150.398 167.898L150.597 167.744L150.999 167.545L151.245 167.444L151.448 167.39L151.946 167.293L152.248 167.24L152.497 167.192H153.095H153.704L154.194 167.293L154.491 167.338L154.993 167.443ZM155.192 164.325L154.194 164.22H154.187H154.175H154.17H154.161H154.142H154.119H154.105H154.082H154.053H154.026H153.99H153.959H153.926H153.888H153.85H153.816H153.768H153.73H153.682H153.641H153.591H153.548H153.509H153.498H153.45H153.409H153.352H153.304H153.251H153.204H153.147H153.096H153.041H152.995H152.945H152.897H152.837H152.79H152.749H152.691H152.682H152.643H152.6H152.557H152.507H152.469H152.423H152.38H152.342H152.305H152.272H152.241H152.204H152.169H152.136H152.118H152.088H152.072H152.055H152.039H152.026H152.013H152H151.996L151 164.325L150.499 164.425L149.602 164.627L149.202 164.776L148.807 164.877L148.408 165.078L148.204 165.127L148.058 165.23L147.859 165.329L147.708 165.429L147.51 165.53L147.361 165.635L147.201 165.784L146.907 165.983L146.756 166.133L146.604 166.236L146.301 166.535L146.21 166.689L146.061 166.835L145.96 166.988L145.81 167.139L145.712 167.292L145.604 167.443L145.516 167.641L145.412 167.791L145.31 167.995L145.212 168.147L145.107 168.348L145.058 168.546L144.958 168.75L144.908 168.949L144.815 169.152L144.714 169.555L144.558 170.006L144.511 170.459L144.412 170.958L144.359 171.466L144.312 171.968V172.525L144.257 173.074L144.312 173.626V174.231L144.359 174.735L144.412 175.29L144.511 175.79L144.558 176.243L144.657 176.746L144.814 177.199L144.86 177.397L144.958 177.603L145.016 177.802L145.31 178.405L145.353 178.603L145.463 178.755L145.562 178.957L145.713 179.111L145.811 179.261L145.912 179.459L146.014 179.614L146.155 179.763L146.259 179.918L146.412 180.062L146.563 180.165L146.856 180.467L147.154 180.667L147.305 180.819L147.455 180.919L147.656 181.018L147.805 181.123L148.004 181.224L148.161 181.322L148.35 181.422L148.549 181.471L148.755 181.574L148.948 181.623L149.153 181.729L149.356 181.775L149.603 181.822L149.811 181.927L150.009 181.976L150.5 182.079L150.95 182.125L151.45 182.179L152.551 182.277H152.559H152.561H152.578H152.581H152.585H152.595H152.609H152.618H152.632H152.652H152.666H152.683H152.697H152.716H152.74H152.76H152.783H152.8H152.822H152.856H152.88H152.898H152.924H152.947H152.97H152.997H153.022H153.043H153.071H153.097H153.124H153.149H153.184H153.206H153.225H153.253H153.277H153.299H153.323H153.35H153.376H153.399H153.417H153.436H153.461H153.48H153.494H153.513H153.532H153.544H153.561H153.575H153.589H153.601H153.611H153.622H153.627H153.641H153.644H153.651L154.197 182.228L155.195 182.125L155.645 182.079L156.143 181.976L156.547 181.873L156.999 181.729L157.184 181.623L157.385 181.574L157.596 181.471L157.787 181.422L157.991 181.322L158.145 181.224L158.335 181.123L158.494 181.018L158.687 180.919L158.985 180.718L159.138 180.566L159.296 180.467L159.592 180.165L159.734 180.062L159.888 179.918L159.99 179.763L160.135 179.614L160.337 179.314L160.49 179.163L160.585 178.957L160.689 178.809L160.784 178.603L160.88 178.454L160.937 178.253L161.033 178.051L161.34 177.248L161.481 176.795L161.687 175.893L161.73 175.388L161.833 174.885V174.331L161.883 173.776V172.67L161.833 172.12V171.566L161.73 171.063L161.687 170.562L161.589 170.111L161.481 169.654L161.34 169.201L161.033 168.397L160.937 168.196L160.88 168.046L160.784 167.845L160.689 167.693L160.585 167.492L160.49 167.338L160.337 167.139L160.135 166.835L159.99 166.689L159.888 166.535L159.734 166.438L159.434 166.132L159.296 166.034L159.138 165.882L158.844 165.681L158.687 165.529L158.494 165.428L158.336 165.328L158.145 165.229L157.992 165.127L157.788 165.077L157.596 164.977L157.385 164.93L157.185 164.825L157 164.776L156.548 164.626L156.143 164.523L155.646 164.425L155.192 164.325ZM162.074 156.048H166.754V153.188H161.777L161.478 153.141H161.178L160.678 153.045L160.082 152.892L159.883 152.791L159.589 152.59L159.39 152.489L159.239 152.338L159.139 152.185L158.993 152.085L158.892 151.986L158.835 151.837L158.739 151.734L158.694 151.635L158.589 151.337L158.54 151.236L158.49 151.086V150.88L158.436 150.682V150.48L158.39 150.228V138.745H154.658V149.526L154.707 150.03V150.432L154.758 150.88L154.813 151.236L154.853 151.589L154.954 151.94L155.007 152.236L155.11 152.488L155.253 152.79L155.354 153.044L155.654 153.542L156.05 154.044L156.747 154.743L156.995 154.898L157.293 155.094L157.541 155.292L157.841 155.447L158.097 155.553L158.54 155.696L158.739 155.747L158.891 155.796L159.086 155.848L159.488 155.9L160.382 156L160.926 156.047H162.074V156.048ZM179 181.927V181.912V181.873V181.866V181.816V181.781V181.728V181.672V181.623V181.547V181.496V181.398V181.348V181.225V181.174V181.038V180.988V180.834V180.785V180.608V180.561V180.368V180.321V180.107V180.061V179.835V179.793V179.548V179.507V179.247V179.208V178.93V178.892V178.609V178.57V178.273V178.235V177.929V177.89V177.573V177.534V177.206V177.17V176.836V176.802V176.454V176.419V176.066V176.032V175.674V175.645V175.277V175.247V174.88V174.851V174.475V174.446V174.068V174.042V173.659V173.633V173.249V173.225V172.842V172.816V172.433V172.411V172.023V172.006V171.618V171.602V171.221V171.199V170.823V170.805V170.43V170.418V170.045V170.028V169.663V169.653V169.291V169.281V168.932V168.918V168.572V168.562V168.225V168.218V167.889V167.879V167.563V167.554V167.252V167.244V166.95V166.948V166.665V166.658V166.396V166.389V166.135V166.128V165.896V165.891V165.668V165.462V165.273V165.27V165.106V164.959V164.952V164.829V164.824V164.716V164.636V164.576V164.535V164.522H178.988H178.974H178.959H178.938H178.916H178.907H178.88H178.839H178.834H178.802H178.757H178.741H178.705H178.652H178.621H178.602H178.544H178.489H178.477H178.415H178.341H178.333H178.273H178.207H178.168H178.125H178.045H177.984H177.965H177.884H177.801H177.785H177.72H177.629H177.572H177.545H177.459H177.371H177.34H177.287H177.191H177.105H177.098H177.019H176.928H176.842H176.837H176.753H176.662H176.578H176.577H176.492H176.411H176.325H176.301H176.241H176.166H176.09H176.013H176.004H175.939H175.873H175.798H175.735H175.707H175.676H175.619H175.561H175.509H175.456H175.415H175.401H175.373H175.334H175.306H175.274H175.258H175.234H175.227H175.214L175.402 176.994L168.173 164.522H168.167H168.156H168.146H168.122H168.094H168.053H168.014H167.976H167.911H167.861H167.803H167.736H167.724H167.675H167.598H167.518H167.437H167.39H167.354H167.268H167.174H167.083H167.079H166.994H166.89H166.784H166.767H166.691H166.586H166.478H166.474H166.373H166.27H166.184H166.156H166.041H165.94H165.902H165.835H165.718H165.639H165.603H165.497H165.387H165.38H165.277H165.169H165.143H165.069H164.962H164.909H164.858H164.765H164.698H164.665H164.562H164.504H164.471H164.385H164.321H164.306H164.215H164.146H164.129H164.062H164.007H163.981H163.916H163.863H163.848H163.792H163.744H163.735H163.682H163.653H163.637H163.598H163.582H163.557H163.533H163.524H163.507H163.498H163.491H163.484H163.481V164.535V164.576V164.636V164.716V164.824V164.829V164.952V164.959V165.106V165.27V165.273V165.462V165.668V165.891V165.896V166.128V166.135V166.389V166.396V166.658V166.665V166.948V166.95V167.244V167.252V167.554V167.563V167.879V167.889V168.218V168.225V168.562V168.572V168.918V168.932V169.281V169.292V169.654V169.664V170.029V170.046V170.419V170.431V170.806V170.824V171.201V171.222V171.603V171.62V172.008V172.024V172.412V172.434V172.817V172.844V173.226V173.251V173.634V173.66V174.043V174.07V174.447V174.476V174.852V174.881V175.248V175.278V175.646V175.676V176.034V176.067V176.42V176.455V176.804V176.837V177.171V177.207V177.536V177.575V177.891V177.93V178.237V178.275V178.571V178.611V178.893V178.931V179.209V179.249V179.508V179.55V179.794V179.836V180.063V180.108V180.322V180.37V180.562V180.609V180.786V180.834V180.988V181.038V181.174V181.225V181.348V181.398V181.496V181.547V181.623V181.672V181.728V181.782V181.817V181.866V181.873V181.913V181.927H167.275L167.12 168.799L174.715 181.927H179V181.927Z" fill="#30302C"/>
</svg>
